<svg xmlns="http://www.w3.org/2000/svg" xmlns:xlink="http://www.w3.org/1999/xlink" x="0px" y="0px" style="enable-background:new 0 0 350 40;" xml:space="preserve" viewBox="0 6.8 162.3 26.6"> 	<style type="text/css"> 		.logo-white{fill:#FFFFFF;} 		.logo-lblue{fill:#3CB4E5;} 	</style> 	 	<g> 		<path id="XMLID_36_" class="logo-white" d="M6.6,33.4c-2.6,0-4.3-0.4-5.2-1.3c-0.9-0.9-1.4-2.5-1.4-5v-5.5l6.2-1.2v8h12.1V6.8h6.2v20.3 			c0,2.4-0.5,4.1-1.4,5c-0.9,0.9-2.7,1.3-5.2,1.3H6.6z"></path> 		<path id="XMLID_33_" class="logo-white" d="M31,33.4L46,6.8h5.9l15.2,26.5h-6.9l-4.7-8.7l-15.3,2.8l-0.8,1.5l-2.3,4.3H31z M42.9,22.8h11.6 			L48.7,12L42.9,22.8z"></path> 		<path id="XMLID_29_" class="logo-white" d="M75.7,33.4V6.8h22.7c2.1,0,3.6,0.4,4.6,1.2c0.9,0.8,1.4,2.1,1.4,3.9v3.2c0,1.3-0.4,2.3-1.2,3 			c-0.8,0.8-1.9,1.2-3.4,1.4c1.5,0.2,2.7,0.7,3.5,1.6c0.8,0.9,1.2,2,1.2,3.5v3.4c0,1.8-0.6,3.1-1.9,3.9c-1.3,0.9-3.3,1.3-5.9,1.3 			H75.7z M95.8,11.2H81.7v6.3h14.1c1.1,0,1.8-0.1,2.2-0.4c0.4-0.3,0.6-0.8,0.6-1.5v-2.5c0-0.7-0.2-1.2-0.6-1.5 			C97.6,11.3,96.9,11.2,95.8,11.2 M95.8,21.8H81.7v6.8h14.1c1.2,0,2-0.2,2.4-0.5c0.4-0.4,0.6-1,0.6-1.9v-2c0-0.9-0.2-1.5-0.6-1.8 			C97.8,22,97,21.8,95.8,21.8"></path> 		<rect id="XMLID_28_" x="116.4" y="6.8" class="logo-white" width="6.2" height="26.5"></rect> 		<polygon id="XMLID_27_" class="logo-white" points="136.2,33.4 136.2,6.8 142.3,6.8 142.3,28.4 162.3,28.4 162.3,33.4 	"></polygon> 		<polygon id="XMLID_26_" class="logo-lblue" points="44.9,19 39.5,29.1 78.2,19 	"></polygon> 	</g> 	 	</svg>
