<svg xmlns="http://www.w3.org/2000/svg" style="enable-background:new 0 0 350 40" xml:space="preserve" viewBox="0 6.8 162.3 26.6">
  <style>
    .logo-white{fill:#fff}
  </style>
  <path id="XMLID_36_" class="logo-white" d="M6.6 33.4c-2.6 0-4.3-.4-5.2-1.3-.9-.9-1.4-2.5-1.4-5v-5.5l6.2-1.2v8h12.1V6.8h6.2v20.3c0 2.4-.5 4.1-1.4 5-.9.9-2.7 1.3-5.2 1.3H6.6z"/>
  <path id="XMLID_33_" class="logo-white" d="M31 33.4 46 6.8h5.9l15.2 26.5h-6.9l-4.7-8.7-15.3 2.8-.8 1.5-2.3 4.3H31zm11.9-10.6h11.6L48.7 12l-5.8 10.8z"/>
  <path id="XMLID_29_" class="logo-white" d="M75.7 33.4V6.8h22.7c2.1 0 3.6.4 4.6 1.2.9.8 1.4 2.1 1.4 3.9v3.2c0 1.3-.4 2.3-1.2 3-.8.8-1.9 1.2-3.4 1.4 1.5.2 2.7.7 3.5 1.6.8.9 1.2 2 1.2 3.5V28c0 1.8-.6 3.1-1.9 3.9-1.3.9-3.3 1.3-5.9 1.3h-21zm20.1-22.2H81.7v6.3h14.1c1.1 0 1.8-.1 2.2-.4.4-.3.6-.8.6-1.5v-2.5c0-.7-.2-1.2-.6-1.5-.4-.3-1.1-.4-2.2-.4m0 10.6H81.7v6.8h14.1c1.2 0 2-.2 2.4-.5.4-.4.6-1 .6-1.9v-2c0-.9-.2-1.5-.6-1.8-.4-.4-1.2-.6-2.4-.6"/>
  <path id="XMLID_28_" class="logo-white" d="M116.4 6.8h6.2v26.5h-6.2z"/>
  <path id="XMLID_27_" class="logo-white" d="M136.2 33.4V6.8h6.1v21.6h20v5z"/>
  <path id="XMLID_26_" style="fill:#3cb4e5" d="m44.9 19-5.4 10.1L78.2 19z"/>
</svg>
