<svg xmlns="http://www.w3.org/2000/svg" fill="none" viewBox="48 32 166.67 192">
  <path d="M214.49 176.092v.002c-15.572 10.92-54.611 22.127-61.153 2.514-11.871 8.937-18.978 33.297-22.002 45.392-3.024-12.095-10.131-36.452-22.001-45.39-6.545 19.614-45.579 8.404-61.15-2.514h-.003c-1.66-18.951 8.15-58.382 28.398-54.24-1.8-14.746-19.311-33.079-28.274-41.754v-.004c11.986 3.432 36.613 9.438 50.282 3.627C84.875 68.25 114.096 40.033 131.335 32c17.238 8.033 46.461 36.251 32.744 51.726 13.667 5.814 38.298-.195 50.284-3.63l.004.004c-8.964 8.669-26.477 27.009-28.277 41.752 20.248-4.141 30.061 35.287 28.4 54.24Zm-83.154-135.6c-13.637 6.968-27.691 19.407-29.963 34.526h.019c17.131-5.778 26.668 17.877 29.945 31.105 3.274-13.228 12.81-36.883 29.946-31.104l.014-.001c-2.273-15.119-16.328-27.558-29.961-34.525Zm75.749 131.26c.784-15.297-2.958-33.697-14.908-43.22l-.006.012c-3.565 17.728-28.816 14.163-41.907 10.387 9.818 9.457 25.527 29.548 11.957 41.506l-.002.007c14.221 5.596 32.014-.366 44.866-8.692Zm-151.499-.005v.004c12.856 8.328 30.648 14.289 44.865 8.694l-.005-.011c-13.562-11.954 2.143-32.047 11.96-41.505-13.09 3.777-38.341 7.343-41.907-10.387l-.007-.011c-11.947 9.521-15.685 27.926-14.906 43.216Zm75.75-40.044c-13.637 7.688-27.691 21.414-29.962 38.088h.019c17.131-6.373 26.668 19.732 29.945 34.326 3.274-14.594 12.81-40.699 29.946-34.326h.014c-2.274-16.674-16.329-30.4-29.962-38.088Zm-3.204-5.556c.163-15.661-4.684-34.698-17.988-45.002l-.013.009c-3.045 18.028-30.41 13.247-44.678 8.79 10.992 10.127 28.814 31.449 14.731 43.102l-.003.017c15.572 6.37 34.479 1.05 47.951-6.916Zm6.406 0 .007.002c13.467 7.971 32.376 13.285 47.949 6.915l-.005-.018c-14.083-11.65 3.738-32.97 14.732-43.102-14.267 4.46-41.635 9.243-44.678-8.79l-.007-.008c-13.309 10.306-18.159 29.343-17.998 45.001Z" fill="#000"/>
</svg>
