<svg xmlns="http://www.w3.org/2000/svg" viewBox="0 0 600 275">
  <g data-name="StubHub">
    <path d="M7.7 41.8c-3.2.2-5.5 3-5.2 6.2l17.9 171.1c.3 3.2-.2 8.3-1.1 11.4l-8.4 27.2c-1 3.1.7 4.6 3.7 3.3l45-18.7c3-1.2 8-2.1 11.2-1.9l496.7 32c3.2.2 6.1-2.2 6.4-5.5l23.6-259c.3-3.2-2.1-5.6-5.3-5.4L7.7 41.8Z" style="fill-rule:evenodd;stroke-width:0;fill:#5e29ba"/>
    <path d="M149.7 157.8c0 7.5-3 13.6-9 18-5.9 4.4-14.2 6.6-24.8 6.6s-18.7-2.2-24.5-6.6c-6-4.4-9-10.5-9-18v-1.3h12.8v1.3c0 3.7 1.7 6.5 5.2 8.6 3.6 2.2 8.9 3.3 15.6 3.3s12-1.1 15.8-3.3c3.6-2.1 5.4-5 5.4-8.6V156c0-4.1-2.5-6.9-7.5-8.6l-29.5-9.9c-4.9-1.5-8.7-3.9-11.3-7-2.6-3.1-4-6.9-4-11.2v-2C84.9 102 95 94.1 115 93.9h1.3c20.3 0 31 7.4 31.6 22.1v1.1h-12.7v-1c-.8-6.4-6.9-9.6-18.9-9.6h-1.1c-11.9.2-17.7 3.7-17.7 10.8v2c0 1.1.5 2.2 1.6 3.3 1.2 1.2 2.8 2.1 4.7 2.8l29.9 9.9c4.9 1.6 8.8 4.2 11.7 7.7 2.9 3.5 4.4 7.9 4.4 12.9v1.8Zm35.5-25.6h-13.3v22.1c0 5.1 1.4 9.1 4.1 12.1 2.1 2.3 4.8 3.7 8.2 4.2h.9v12.3h-1.2c-7-.8-12.7-3.4-17-7.8-5-5.2-7.6-12.2-7.6-20.7V96.1h12.4v23.5H185v12.7Zm59.4 21.3c0 10.4-1.9 18-5.7 22.4-3.6 4.3-9.6 6.6-17.6 6.8s-1.1 0-1.1 0h-1.8c-8.1-.2-14-2.5-17.7-6.9-3.8-4.5-5.7-12-5.7-22.4v-33.9h12.2v33.9c0 6.4.9 11 2.8 13.5 1.8 2.4 5 3.6 9.5 3.7h.6c4.5 0 7.7-1.2 9.5-3.7 1.9-2.5 2.8-7.1 2.8-13.5v-33.9h12.2v33.9Zm37.9-23.5c-5.1 0-9.1 1.3-11.7 4-2.6 2.6-4 7.1-4 13.2v7c0 5.1 1.4 9.1 4.1 12.1 2.7 3 6.6 4.4 11.6 4.4s8.8-1.5 11.6-4.4c2.8-3 4.2-7 4.2-12.1v-7c0-6.1-1.3-10.6-4-13.2-2.7-2.6-6.6-4-11.8-4Zm-15.7-33.9V124c3.9-4 9.1-6 15.7-6 18.8 0 28.3 9.8 28.3 29.2v7c0 8.5-2.6 15.5-7.6 20.7-5.1 5.2-12 7.9-20.7 7.9s-15.5-2.7-20.5-7.9-7.6-12.2-7.6-20.7V96.1h12.4Zm118.8 86h-12.9v-37.7h-39.3v37.7h-12.9V95.9h12.9v36h39.3v-36h12.9v86.2Zm59.4-28.6c0 10.4-1.9 18-5.7 22.4-3.6 4.3-9.6 6.6-17.6 6.8s-1.1 0-1.1 0h-1.8c-8.1-.2-14-2.5-17.7-6.9-3.8-4.5-5.7-12-5.7-22.4v-33.9h12.2v33.9c0 6.5.9 11 2.8 13.5 1.8 2.4 5 3.6 9.5 3.7h.6c4.5 0 7.7-1.2 9.5-3.7 1.9-2.5 2.8-7.1 2.8-13.5v-33.9H445v33.9Zm37.9-23.5c-5.1 0-9.1 1.3-11.7 4-2.6 2.6-4 7.1-4 13.2v7c0 5.1 1.4 9.1 4.1 12.1 2.7 3 6.6 4.4 11.6 4.4s8.8-1.5 11.6-4.4c2.8-3 4.2-7.1 4.2-12.1v-7c0-6.1-1.3-10.6-4-13.2-2.7-2.6-6.6-4-11.8-4Zm-15.7-33.9V124c3.9-4 9.1-6 15.7-6 18.8 0 28.3 9.8 28.3 29.2v7c0 8.5-2.6 15.5-7.6 20.7-5.1 5.2-12 7.9-20.7 7.9s-15.5-2.7-20.5-7.9-7.6-12.2-7.6-20.7V96.1h12.4Z" style="fill:#fff;fill-rule:evenodd;stroke-width:0"/>
  </g>
</svg>
